<svg width="24" height="24" viewBox="0 0 24 24" fill="none" xmlns="http://www.w3.org/2000/svg">
<circle cx="12" cy="12" r="12" fill="#FFB423"/>
<path d="M12 8.66732C12.3667 8.66732 12.6667 8.96732 12.6667 9.33398V12.0007C12.6667 12.3673 12.3667 12.6673 12 12.6673C11.6333 12.6673 11.3333 12.3673 11.3333 12.0007V9.33398C11.3333 8.96732 11.6333 8.66732 12 8.66732ZM11.9933 5.33398C8.31333 5.33398 5.33333 8.32065 5.33333 12.0007C5.33333 15.6807 8.31333 18.6673 11.9933 18.6673C15.68 18.6673 18.6667 15.6807 18.6667 12.0007C18.6667 8.32065 15.68 5.33398 11.9933 5.33398ZM12 17.334C9.05333 17.334 6.66667 14.9473 6.66667 12.0007C6.66667 9.05398 9.05333 6.66732 12 6.66732C14.9467 6.66732 17.3333 9.05398 17.3333 12.0007C17.3333 14.9473 14.9467 17.334 12 17.334ZM12.6667 15.334H11.3333V14.0007H12.6667V15.334Z" fill="white"/>
</svg>
